<svg width="64" height="64" viewBox="0 0 64 64" fill="none" xmlns="http://www.w3.org/2000/svg">
<path fill-rule="evenodd" clip-rule="evenodd" d="M12.3771 4.26556C10.821 4.44568 9.24711 5.10793 8.10749 6.06231C6.94861 7.03281 5.99011 8.83368 5.62349 10.7299C5.40249 11.8724 5.38899 12.9287 5.37174 30.3748C5.35136 51.1082 5.30399 49.9722 6.27411 51.9998C7.18411 53.9017 8.76711 55.1686 11.1481 55.9006C12.0609 56.1812 12.0811 56.1817 22.5937 56.2198L33.125 56.2579V52.8163V49.3748H23.5265H13.928L13.3736 49.0936C12.969 48.8883 12.7415 48.6591 12.5315 48.2453L12.2437 47.6782L12.1674 30.4953C12.1077 17.0646 12.1247 13.1894 12.2452 12.7498C12.4612 11.9618 13.298 11.1693 14.0244 11.0647C14.3204 11.0221 22.8594 10.9761 33 10.9623C50.7862 10.9382 51.453 10.9456 51.875 11.1707C52.4479 11.4763 52.8504 11.8497 53.1056 12.3123C53.2949 12.6553 53.3179 14.3451 53.375 32.1248L53.4375 51.5623L53.7031 52.1366C54.0089 52.7977 54.804 53.5903 55.4749 53.9028C55.763 54.0369 56.2504 54.1194 56.767 54.1216C58.2944 54.1276 59.5035 53.1898 59.9566 51.6478C60.1474 50.9983 60.1662 49.2644 60.1764 31.4373L60.1875 11.9373L59.8921 10.5623C59.5617 9.02468 59.0599 7.92268 58.2262 6.90418C57.0769 5.50031 55.2839 4.53118 53.3347 4.26056C52.1417 4.09493 13.8106 4.09956 12.3771 4.26556ZM36.7129 13.2037C36.6645 13.2519 36.625 13.8727 36.625 14.5832V15.8748H37.8167H39.0085L38.973 14.5311L38.9375 13.1873L37.8691 13.1516C37.2815 13.1319 36.7611 13.1553 36.7129 13.2037ZM31.2187 15.8622C30.8235 16.2669 30.5 16.6601 30.5 16.7359C30.5 16.8118 30.8756 17.2704 31.3347 17.7549L32.1695 18.6359L32.9597 17.8527C33.3944 17.4219 33.75 17.0102 33.75 16.9376C33.75 16.8106 32.1181 15.1239 31.9969 15.1257C31.9642 15.1261 31.614 15.4576 31.2187 15.8622ZM42.5906 16.0229C42.125 16.5157 41.7594 16.9604 41.7781 17.0113C41.797 17.0621 42.148 17.4543 42.558 17.8831L43.3035 18.6624L44.1517 17.7569C44.6182 17.2588 45 16.8001 45 16.7374C45 16.6108 43.6257 15.1242 43.5104 15.1258C43.4702 15.1264 43.0564 15.5301 42.5906 16.0229ZM36.305 17.3593C35.0047 17.6966 33.4389 19.0203 32.8005 20.3219C32.4564 21.0238 32.4375 21.1469 32.4375 22.6873C32.4375 24.2086 32.4595 24.3572 32.7826 25.0149C34.4927 28.4974 39.2271 29.2201 41.7847 26.3891C42.385 25.7247 42.9431 24.6026 43.1347 23.6752C43.6154 21.3479 42.0852 18.4838 39.9025 17.6254C39.1305 17.3218 37.0446 17.1676 36.305 17.3593ZM28.375 22.5623V23.7498H29.8125H31.25V22.5623V21.3748H29.8125H28.375V22.5623ZM44.3334 21.4582C44.2875 21.5039 44.25 22.0664 44.25 22.7082V23.8748H45.6875H47.125V22.6248V21.3748H45.7709C45.026 21.3748 44.3791 21.4123 44.3334 21.4582ZM31.3399 27.5972C30.878 28.0627 30.5 28.4968 30.5 28.5618C30.5 28.7252 31.8986 30.1248 32.062 30.1248C32.1346 30.1248 32.584 29.7321 33.0604 29.2519L33.9266 28.3791L33.6196 28.1074C33.4506 27.9581 33.0576 27.5917 32.7461 27.2933L32.1799 26.7508L31.3399 27.5972ZM42.8744 27.1413C41.6795 28.1789 41.6172 28.2523 41.744 28.4733C41.8115 28.5911 42.2212 29.0393 42.6546 29.4697L43.4425 30.2519L44.2402 29.4472L45.0379 28.6423L44.5306 28.0398C44.2516 27.7084 43.8631 27.2853 43.6674 27.0996L43.3114 26.7618L42.8744 27.1413ZM14.9332 27.7788C14.8999 27.8659 14.8872 31.1998 14.905 35.1873L14.9375 42.4373H23C27.4344 42.4373 31.5547 42.4191 32.1562 42.3969L33.25 42.3564V38.3032V34.2498H27.0646H20.8791L20.8459 30.9686L20.8125 27.6873L17.9032 27.6538C15.6436 27.6277 14.9804 27.6556 14.9332 27.7788ZM36.6842 29.5311C36.6455 29.6858 36.6304 30.2891 36.6506 30.8717C36.6857 31.8809 36.7007 31.9303 36.9687 31.9168C37.1235 31.9089 37.6437 31.8963 38.125 31.8887L39 31.8748V30.7601C39 30.1469 38.9659 29.5563 38.9241 29.4476C38.8632 29.2891 38.6407 29.2498 37.8015 29.2498C36.8202 29.2498 36.7504 29.2674 36.6842 29.5311ZM43.6581 35.4426C41.055 36.1436 39.625 38.1223 39.625 41.0232V41.9092L41.4062 41.8334C42.3859 41.7917 43.4266 41.7558 43.7187 41.7537L44.25 41.7498V41.2331C44.25 40.4299 44.5026 39.7734 44.9694 39.3637C45.4294 38.9598 45.675 38.9602 46.25 39.3659C47.2386 40.0634 47.0322 41.7721 45.8565 42.6238C45.5751 42.8277 44.8031 43.2856 44.1411 43.6412C41.8649 44.8642 40.7142 46.0422 40.0084 47.8726C39.5756 48.9947 39.1686 50.8574 39.2881 51.1687C39.3667 51.3736 39.7471 51.3863 45.1549 51.3649C48.3352 51.3523 51.0656 51.2943 51.2222 51.2361C51.5022 51.1321 51.5065 51.1008 51.4722 49.4088L51.4375 47.6873L48.5289 47.6248L45.6202 47.5623L47.2831 46.4724C48.1977 45.8729 49.1922 45.1717 49.4932 44.9141C51.3584 43.3177 51.987 40.2977 50.9012 38.1498C50.5122 37.3802 49.6679 36.4884 48.8987 36.0349C47.6707 35.3108 45.1887 35.0303 43.6581 35.4426Z" fill="white"/>
</svg>
